<svg width="41" height="41" viewBox="0 0 41 41" fill="none" xmlns="http://www.w3.org/2000/svg">
<g clip-path="url(#clip0)">
<path d="M15.5826 9.26632C17.9088 9.26632 19.7945 7.38056 19.7945 5.05436C19.7945 2.72816 17.9088 0.842407 15.5826 0.842407C13.2564 0.842407 11.3706 2.72816 11.3706 5.05436C11.3706 7.38056 13.2564 9.26632 15.5826 9.26632Z" stroke="white" stroke-width="2" stroke-linecap="round" stroke-linejoin="round"/>
<path d="M16.4249 37.0652V28.6413" stroke="white" stroke-width="2" stroke-linecap="round" stroke-linejoin="round"/>
<path d="M11.3706 24.4293V37.0652C11.3706 37.7355 11.6369 38.3783 12.1108 38.8522C12.5847 39.3261 13.2275 39.5924 13.8978 39.5924C14.568 39.5924 15.2108 39.3261 15.6848 38.8522C16.1587 38.3783 16.4249 37.7355 16.4249 37.0652C16.4249 37.7355 16.6912 38.3783 17.1651 38.8522C17.6391 39.3261 18.2819 39.5924 18.9521 39.5924C19.6224 39.5924 20.2652 39.3261 20.7391 38.8522C21.213 38.3783 21.4793 37.7355 21.4793 37.0652V19.279L22.6317 20.7599C23.5076 21.8902 24.6861 22.749 26.0304 23.2366C27.3748 23.7242 28.8298 23.8205 30.2267 23.5145C30.8227 23.4145 31.3666 23.1137 31.768 22.6619C32.1695 22.2102 32.4044 21.6348 32.4337 21.0311C32.4396 20.6467 32.3578 20.266 32.1943 19.9181C32.0309 19.5701 31.7902 19.264 31.4907 19.023C31.1911 18.7821 30.8405 18.6127 30.4655 18.5277C30.0906 18.4427 29.7012 18.4444 29.327 18.5326C28.8587 18.6714 28.3601 18.6708 27.8921 18.5307C27.4241 18.3907 27.0071 18.1174 26.692 17.7441L24.2322 14.5835C23.7593 13.9766 23.1541 13.4857 22.4627 13.1482C21.7713 12.8107 21.012 12.6354 20.2427 12.6359H13.0554C11.7149 12.6359 10.4293 13.1684 9.48141 14.1162C8.53354 15.0641 8.00103 16.3497 8.00103 17.6902V21.0598C8.00103 21.9534 8.35604 22.8105 8.98795 23.4424C9.61987 24.0743 10.4769 24.4293 11.3706 24.4293V24.4293Z" stroke="white" stroke-width="2" stroke-linecap="round" stroke-linejoin="round"/>
<path d="M11.3706 24.4294H17.2673C17.9376 24.4294 18.5804 24.1631 19.0543 23.6892C19.5283 23.2152 19.7945 22.5724 19.7945 21.9022C19.7945 21.2319 19.5283 20.5891 19.0543 20.1152C18.5804 19.6413 17.9376 19.375 17.2673 19.375H16.6659" stroke="white" stroke-width="2" stroke-linecap="round" stroke-linejoin="round"/>
<path d="M8.00103 21.0598L18.1097 12.6359L15.5826 24.4293" stroke="white" stroke-width="2" stroke-linecap="round" stroke-linejoin="round"/>
</g>
<defs>
<clipPath id="clip0">
<rect width="40.4348" height="40.4348" fill="white"/>
</clipPath>
</defs>
</svg>
