<svg width="43" height="42" viewBox="0 0 43 42" fill="none" xmlns="http://www.w3.org/2000/svg">
<path d="M1 37L6.48338 9.004C6.87212 7.02103 8.81586 5.5969 11.087 5.5969H15.4859C16.3248 5.5969 17 5.002 17 4.26289V1" stroke="white" stroke-width="2" stroke-miterlimit="10" stroke-linecap="round"/>
<path d="M8 40C8.13688 39.7428 12 18 12 18" stroke="white" stroke-width="2" stroke-miterlimit="10" stroke-linecap="round"/>
<path d="M12.259 17.6416L13.6822 27.1107L12.8125 30.8433L11.5078 40.6857" stroke="white" stroke-width="2" stroke-miterlimit="10" stroke-linecap="round"/>
<path d="M42 37L36.5166 9.004C36.1279 7.02103 34.1841 5.5969 31.913 5.5969H27.5141C26.6752 5.5969 26 5.002 26 4.26289V1" stroke="white" stroke-width="2" stroke-miterlimit="10" stroke-linecap="round"/>
<path d="M35 40C34.8626 39.7194 31 18 31 18" stroke="white" stroke-width="2" stroke-miterlimit="10" stroke-linecap="round"/>
<path d="M30.7212 17.6416L29.3178 27.1107L30.1875 30.8433L31.4921 40.6857" stroke="white" stroke-width="2" stroke-miterlimit="10" stroke-linecap="round"/>
<path d="M16.924 29.1738L18.6041 32.6707" stroke="white" stroke-width="2" stroke-miterlimit="10" stroke-linecap="round"/>
<path d="M23.1308 32.709L25.3447 29.3496" stroke="white" stroke-width="2" stroke-miterlimit="10" stroke-linecap="round"/>
<path d="M24.04 34.8906H27.1632" stroke="white" stroke-width="2" stroke-miterlimit="10" stroke-linecap="round"/>
<path d="M17.6553 34.8906H14.4729" stroke="white" stroke-width="2" stroke-miterlimit="10" stroke-linecap="round"/>
<path d="M18.703 36.1865L15.7775 39.0548" stroke="white" stroke-width="2" stroke-miterlimit="10" stroke-linecap="round"/>
<path d="M20.8576 37.7188L21.075 40.8031" stroke="white" stroke-width="2" stroke-miterlimit="10" stroke-linecap="round"/>
<path d="M22.5378 36.0693L25.5028 39.468" stroke="white" stroke-width="2" stroke-miterlimit="10" stroke-linecap="round"/>
<path d="M21.6483 2V4.96646" stroke="white" stroke-width="2" stroke-miterlimit="10" stroke-linecap="round"/>
<path d="M22 9L22.5535 14.1864" stroke="white" stroke-width="2" stroke-miterlimit="10" stroke-linecap="round"/>
<path d="M22.336 19L22 23.8131" stroke="white" stroke-width="2" stroke-miterlimit="10" stroke-linecap="round"/>
<path d="M21.5692 28.0928L20.8576 32.6898" stroke="white" stroke-width="2" stroke-miterlimit="10" stroke-linecap="round"/>
</svg>
