<svg width="32" height="35" viewBox="0 0 32 35" fill="none" xmlns="http://www.w3.org/2000/svg">
<path d="M28.1994 25.4591V7.94454C28.1994 -1.31485 4.3891 -1.31485 4.3891 7.94454V25.4591" stroke="white" stroke-width="2" stroke-linecap="round" stroke-linejoin="round"/>
<path d="M31.0006 33.1563C30.9997 32.6323 30.8812 32.1151 30.6539 31.6429C30.4265 31.1707 30.096 30.7556 29.6869 30.4282C29.2777 30.1008 28.8003 29.8693 28.2897 29.751C27.7792 29.6327 27.2486 29.6304 26.7371 29.7445C26.6552 29.0634 26.4301 28.4073 26.0768 27.8193C25.7235 27.2313 25.2499 26.7247 24.6871 26.3325C24.1242 25.9404 23.4848 25.6717 22.8108 25.544C22.1368 25.4163 21.4434 25.4326 20.7762 25.5917C20.3955 24.7181 19.7681 23.9746 18.9709 23.4524C18.1738 22.9302 17.2416 22.6521 16.2886 22.6521C15.3357 22.6521 14.4035 22.9302 13.6063 23.4524C12.8092 23.9746 12.1818 24.7181 11.8011 25.5917C11.1342 25.4337 10.4415 25.4183 9.76826 25.5465C9.09502 25.6747 8.45644 25.9436 7.89428 26.3356C7.33213 26.7276 6.85907 27.2339 6.50606 27.8213C6.15304 28.4088 5.92802 29.0641 5.84573 29.7445C5.33461 29.6314 4.80465 29.6344 4.29484 29.7531C3.78502 29.8719 3.30833 30.1035 2.89983 30.4308C2.49133 30.7582 2.16142 31.1729 1.93438 31.6446C1.70733 32.1163 1.58893 32.6329 1.58789 33.1563" stroke="white" stroke-width="2" stroke-linecap="round" stroke-linejoin="round"/>
<path d="M21.1963 10.0758C21.1963 9.91664 21.1389 9.76396 21.0368 9.65139C20.9346 9.53882 20.7961 9.47558 20.6516 9.47558H17.9282V6.47428C17.9282 6.31508 17.8709 6.16241 17.7687 6.04984C17.6666 5.93726 17.528 5.87402 17.3836 5.87402H15.2048C15.0604 5.87402 14.9218 5.93726 14.8197 6.04984C14.7176 6.16241 14.6602 6.31508 14.6602 6.47428V9.47558H11.9368C11.7923 9.47558 11.6538 9.53882 11.5516 9.65139C11.4495 9.76396 11.3921 9.91664 11.3921 10.0758V12.4769C11.3921 12.6361 11.4495 12.7887 11.5516 12.9013C11.6538 13.0139 11.7923 13.0771 11.9368 13.0771H14.6602V19.2798C14.6602 19.439 14.7176 19.5917 14.8197 19.7042C14.9218 19.8168 15.0604 19.8801 15.2048 19.8801H17.3836C17.528 19.8801 17.6666 19.8168 17.7687 19.7042C17.8709 19.5917 17.9282 19.439 17.9282 19.2798V13.0771H20.6516C20.7961 13.0771 20.9346 13.0139 21.0368 12.9013C21.1389 12.7887 21.1963 12.6361 21.1963 12.4769V10.0758Z" stroke="white" stroke-width="2" stroke-linecap="round" stroke-linejoin="round"/>
</svg>
