<svg width="40" height="40" viewBox="0 0 40 40" fill="none" xmlns="http://www.w3.org/2000/svg">
<g clip-path="url(#clip0)">
<path d="M14.1667 20C17.8486 20 20.8333 17.0153 20.8333 13.3334C20.8333 9.65145 17.8486 6.66669 14.1667 6.66669C10.4848 6.66669 7.5 9.65145 7.5 13.3334C7.5 17.0153 10.4848 20 14.1667 20Z" stroke="white" stroke-width="2" stroke-linecap="round" stroke-linejoin="round"/>
<path d="M14.1666 10C14.8259 10 15.4704 10.1955 16.0185 10.5618C16.5667 10.928 16.994 11.4486 17.2462 12.0577C17.4985 12.6668 17.5645 13.337 17.4359 13.9836C17.3073 14.6302 16.9898 15.2242 16.5237 15.6904C16.0575 16.1565 15.4635 16.474 14.8169 16.6026C14.1703 16.7312 13.5001 16.6652 12.891 16.4129C12.2819 16.1606 11.7614 15.7334 11.3951 15.1852C11.0288 14.6371 10.8333 13.9926 10.8333 13.3333" stroke="white" stroke-width="2" stroke-linecap="round" stroke-linejoin="round"/>
<path d="M39.1667 32.4997C39.1667 33.8258 38.6399 35.0975 37.7022 36.0352C36.7645 36.9729 35.4928 37.4997 34.1667 37.4997C32.8406 37.4997 31.5688 36.9729 30.6312 36.0352C29.6935 35.0975 29.1667 33.8258 29.1667 32.4997C29.1667 30.398 32.065 25.263 33.4484 22.9113C33.5219 22.7862 33.6269 22.6825 33.7529 22.6104C33.8789 22.5383 34.0215 22.5004 34.1667 22.5004C34.3118 22.5004 34.4545 22.5383 34.5805 22.6104C34.7065 22.6825 34.8114 22.7862 34.885 22.9113C36.2684 25.263 39.1667 30.3963 39.1667 32.4997Z" stroke="white" stroke-width="2" stroke-linecap="round" stroke-linejoin="round"/>
<path d="M0.833313 18.9817C4.61179 22.0865 9.28328 23.9031 14.1666 24.1667C23.2766 24.1667 30.985 16.1433 33.105 13.9067C33.2517 13.7519 33.3336 13.5467 33.3336 13.3333C33.3336 13.12 33.2517 12.9148 33.105 12.76C30.9833 10.5217 23.2766 2.5 14.1666 2.5C9.28328 2.76357 4.61179 4.5802 0.833313 7.685" stroke="white" stroke-width="2" stroke-linecap="round" stroke-linejoin="round"/>
</g>
<defs>
<clipPath id="clip0">
<rect width="40" height="40" fill="white"/>
</clipPath>
</defs>
</svg>
