<svg width="42" height="42" viewBox="0 0 42 42" fill="none" xmlns="http://www.w3.org/2000/svg">
<path d="M25.3942 36.3129V31.9379H26.7085C27.201 31.9857 27.698 31.9314 28.1685 31.7782C28.639 31.625 29.0727 31.3764 29.4427 31.0478C29.8126 30.7193 30.1108 30.3179 30.3184 29.8688C30.5261 29.4197 30.6388 28.9326 30.6495 28.4379V24.9379H34.3455C34.4488 24.9384 34.5508 24.9143 34.643 24.8677C34.7351 24.821 34.8149 24.753 34.8756 24.6694C34.9363 24.5858 34.9762 24.4889 34.9921 24.3868C35.0079 24.2847 34.9992 24.1802 34.9667 24.0822C32.5045 16.4504 30.723 7.39416 22.5907 5.90666C20.816 5.56249 18.9892 5.58869 17.225 5.98359C15.4609 6.3785 13.7973 7.13361 12.3386 8.20157C10.8799 9.26954 9.65762 10.6273 8.74829 12.1898C7.83896 13.7523 7.26222 15.4858 7.05424 17.2817C6.84487 19.5616 7.2108 21.8577 8.11852 23.9596C9.02624 26.0615 10.4468 27.9021 12.25 29.3129V36.3129" stroke="white" stroke-width="2" stroke-linecap="round" stroke-linejoin="round"/>
<path d="M27 14.25L15 25.5M20.0667 24.5L15.5333 20.75M25.9333 19.25L21.4 15.5M22.7333 22L18.2 18.25" stroke="white" stroke-width="2"/>
</svg>
