<svg width="32" height="32" viewBox="0 0 32 32" fill="none" xmlns="http://www.w3.org/2000/svg">
<g clip-path="url(#clip0)">
<path d="M11.54 31.3334V27.3334H10.056C8.99512 27.3334 7.9777 26.9119 7.22756 26.1618C6.47741 25.4116 6.05599 24.3942 6.05599 23.3334V19.3334H2.45599C2.3508 19.3334 2.2471 19.3086 2.15335 19.2609C2.0596 19.2132 1.97846 19.144 1.91656 19.059C1.85467 18.974 1.81377 18.8755 1.79722 18.7716C1.78066 18.6677 1.78892 18.5614 1.82132 18.4614C4.58665 9.91336 6.50665 0.666694 17.2067 0.666694C19.9485 0.66394 22.6209 1.52897 24.8411 3.13789C27.0612 4.74681 28.7153 7.01708 29.5663 9.62352C30.4173 12.23 30.4216 15.0389 29.5786 17.6479C28.7356 20.257 27.0885 22.5323 24.8733 24.148V31.3334" stroke="white" stroke-width="2" stroke-linecap="round" stroke-linejoin="round"/>
<path d="M24.8253 9.52929C24.7569 8.89477 24.5359 8.28626 24.1811 7.75573C23.8264 7.22521 23.3485 6.78846 22.7883 6.48279C22.228 6.17713 21.6021 6.01164 20.964 6.00046C20.3259 5.98929 19.6946 6.13276 19.124 6.41862C18.8281 5.86642 18.382 5.40922 17.8372 5.09983C17.2925 4.79045 16.6713 4.64152 16.0455 4.67024C15.4196 4.69897 14.8147 4.90418 14.3006 5.26217C13.7864 5.62015 13.3841 6.11631 13.14 6.69329C13.0507 6.69329 12.964 6.66662 12.8733 6.66662C12.4356 6.66662 12.0021 6.75284 11.5977 6.92036C11.1933 7.08787 10.8258 7.33341 10.5163 7.64294C10.2068 7.95246 9.96126 8.31993 9.79374 8.72435C9.62623 9.12877 9.54001 9.56222 9.54001 9.99996C9.54001 10.4377 9.62623 10.8712 9.79374 11.2756C9.96126 11.68 10.2068 12.0475 10.5163 12.357C10.8258 12.6665 11.1933 12.912 11.5977 13.0796C12.0021 13.2471 12.4356 13.3333 12.8733 13.3333C13.2342 13.3292 13.5918 13.2657 13.932 13.1453C14.2665 13.8126 14.7825 14.372 15.4208 14.759C16.0591 15.1461 16.7936 15.3452 17.54 15.3333C17.6347 15.3333 17.724 15.3133 17.8187 15.3066C18.1 16.2592 18.6765 17.0979 19.4651 17.7017C20.2537 18.3056 21.2137 18.6435 22.2067 18.6666C23.488 18.6207 24.6988 18.0686 25.5736 17.1313C26.4484 16.194 26.9158 14.948 26.8733 13.6666C26.8816 12.8645 26.7004 12.0717 26.3446 11.3528C25.9887 10.6339 25.4682 10.0091 24.8253 9.52929Z" stroke="white" stroke-width="2" stroke-linecap="round" stroke-linejoin="round"/>
<path d="M13.932 13.1453L14.3253 11.936C14.6215 11.0276 15.245 10.2619 16.0747 9.78798L16.8747 9.33331" stroke="white" stroke-width="2" stroke-linecap="round" stroke-linejoin="round"/>
<path d="M24.3053 7.97479L23.5853 8.15613C22.9584 8.31237 22.3811 8.62442 21.907 9.06333C21.4329 9.50224 21.0774 10.0538 20.8733 10.6668V10.6668" stroke="white" stroke-width="2" stroke-linecap="round" stroke-linejoin="round"/>
<path d="M24.2467 18.1653C23.9952 16.7738 23.2923 15.5039 22.2467 14.552" stroke="white" stroke-width="2" stroke-linecap="round" stroke-linejoin="round"/>
</g>
<defs>
<clipPath id="clip0">
<rect width="32" height="32" fill="white"/>
</clipPath>
</defs>
</svg>
